<svg xmlns="http://www.w3.org/2000/svg" xmlns:xlink="http://www.w3.org/1999/xlink" width="1095" zoomAndPan="magnify" viewBox="20 419 1095 272" height="272" preserveAspectRatio="xMidYMid meet" version="1.0"><defs><g/><clipPath id="5f50f164cb"><path d="M 0.558594 0.921875 L 498 0.921875 L 498 255.800781 L 0.558594 255.800781 Z M 0.558594 0.921875 " clip-rule="nonzero"/></clipPath><clipPath id="04187ce238"><rect x="0" width="498" y="0" height="256"/></clipPath><clipPath id="db891d530a"><path d="M 519 21 L 1078.160156 21 L 1078.160156 255 L 519 255 Z M 519 21 " clip-rule="nonzero"/></clipPath><clipPath id="371f6dc6be"><rect x="0" width="560" y="0" height="234"/></clipPath><clipPath id="b85a56330c"><rect x="0" width="1079" y="0" height="256"/></clipPath></defs><rect x="-112.5" width="1350" fill="#ffffff" y="-112.499995" height="1349.99994" fill-opacity="1"/><rect x="-112.5" width="1350" fill="#ffffff" y="-112.499995" height="1349.99994" fill-opacity="1"/><g transform="matrix(1, 0, 0, 1, 28, 427)"><g clip-path="url(#b85a56330c)"><g clip-path="url(#5f50f164cb)"><g transform="matrix(1, 0, 0, 1, 0, -0.000000000000113687)"><g clip-path="url(#04187ce238)"><g fill="#d4ac74" fill-opacity="1"><g transform="translate(0.72045, 206.758774)"><g><path d="M 75.4375 -137.1875 C 83.789062 -137.1875 90.660156 -135.945312 96.046875 -133.46875 C 101.429688 -131 106.210938 -128.117188 110.390625 -124.828125 C 112.921875 -122.929688 114.851562 -122.707031 116.1875 -124.15625 C 117.519531 -125.613281 118.4375 -129.066406 118.9375 -134.515625 L 123.3125 -134.515625 C 123.0625 -129.578125 122.867188 -123.59375 122.734375 -116.5625 C 122.609375 -109.53125 122.546875 -100.191406 122.546875 -88.546875 L 118.1875 -88.546875 C 117.550781 -94.367188 116.722656 -99.335938 115.703125 -103.453125 C 114.691406 -107.566406 113.300781 -111.207031 111.53125 -114.375 C 109.757812 -117.539062 107.226562 -120.394531 103.9375 -122.9375 C 100.769531 -126.101562 97.09375 -128.441406 92.90625 -129.953125 C 88.726562 -131.472656 84.359375 -132.234375 79.796875 -132.234375 C 72.960938 -132.234375 67.132812 -130.425781 62.3125 -126.8125 C 57.5 -123.207031 53.601562 -118.300781 50.625 -112.09375 C 47.65625 -105.894531 45.472656 -98.898438 44.078125 -91.109375 C 42.679688 -83.316406 41.984375 -75.238281 41.984375 -66.875 C 41.984375 -58.394531 42.710938 -50.257812 44.171875 -42.46875 C 45.628906 -34.675781 47.910156 -27.738281 51.015625 -21.65625 C 54.117188 -15.582031 58.140625 -10.769531 63.078125 -7.21875 C 68.015625 -3.675781 73.84375 -1.90625 80.5625 -1.90625 C 84.738281 -1.90625 88.945312 -2.695312 93.1875 -4.28125 C 97.4375 -5.863281 101.082031 -8.171875 104.125 -11.203125 C 109.0625 -15.003906 112.414062 -19.722656 114.1875 -25.359375 C 115.957031 -30.992188 117.289062 -38.5 118.1875 -47.875 L 122.546875 -47.875 C 122.546875 -35.84375 122.609375 -26.117188 122.734375 -18.703125 C 122.867188 -11.296875 123.0625 -5.0625 123.3125 0 L 118.9375 0 C 118.4375 -5.445312 117.582031 -8.863281 116.375 -10.25 C 115.164062 -11.644531 113.171875 -11.457031 110.390625 -9.6875 C 105.703125 -6.394531 100.726562 -3.515625 95.46875 -1.046875 C 90.21875 1.417969 83.472656 2.65625 75.234375 2.65625 C 61.804688 2.65625 50.054688 -0.0664062 39.984375 -5.515625 C 29.921875 -10.960938 22.101562 -18.8125 16.53125 -29.0625 C 10.957031 -39.320312 8.171875 -51.675781 8.171875 -66.125 C 8.171875 -80.3125 11.050781 -92.722656 16.8125 -103.359375 C 22.570312 -113.992188 30.488281 -122.289062 40.5625 -128.25 C 50.632812 -134.207031 62.257812 -137.1875 75.4375 -137.1875 Z M 75.4375 -137.1875 "/></g></g></g><g fill="#d4ac74" fill-opacity="1"><g transform="translate(131.031842, 206.758774)"><g><path d="M 69.921875 -134.90625 L 116.09375 -15.953125 C 117.863281 -11.398438 119.859375 -8.265625 122.078125 -6.546875 C 124.296875 -4.835938 126.289062 -3.921875 128.0625 -3.796875 L 128.0625 0 C 124.257812 -0.25 119.789062 -0.40625 114.65625 -0.46875 C 109.53125 -0.53125 104.375 -0.5625 99.1875 -0.5625 C 93.351562 -0.5625 87.835938 -0.53125 82.640625 -0.46875 C 77.453125 -0.40625 73.335938 -0.25 70.296875 0 L 70.296875 -3.796875 C 76.753906 -4.054688 80.835938 -5.164062 82.546875 -7.125 C 84.265625 -9.082031 83.851562 -13.296875 81.3125 -19.765625 L 49.015625 -108.109375 L 52.4375 -113.046875 L 23.5625 -37.8125 C 20.769531 -30.84375 19.085938 -25.140625 18.515625 -20.703125 C 17.953125 -16.273438 18.269531 -12.859375 19.46875 -10.453125 C 20.675781 -8.046875 22.640625 -6.363281 25.359375 -5.40625 C 28.085938 -4.457031 31.351562 -3.921875 35.15625 -3.796875 L 35.15625 0 C 30.96875 -0.25 26.972656 -0.40625 23.171875 -0.46875 C 19.378906 -0.53125 15.519531 -0.5625 11.59375 -0.5625 C 8.800781 -0.5625 6.171875 -0.53125 3.703125 -0.46875 C 1.234375 -0.40625 -0.945312 -0.25 -2.84375 0 L -2.84375 -3.796875 C -0.1875 -4.304688 2.53125 -6.015625 5.3125 -8.921875 C 8.101562 -11.835938 10.828125 -16.78125 13.484375 -23.75 L 56.8125 -134.90625 C 58.832031 -134.769531 61.015625 -134.703125 63.359375 -134.703125 C 65.703125 -134.703125 67.890625 -134.769531 69.921875 -134.90625 Z M 83.21875 -54.71875 L 83.21875 -50.921875 L 26.59375 -50.921875 L 28.5 -54.71875 Z M 83.21875 -54.71875 "/></g></g></g><g fill="#d4ac74" fill-opacity="1"><g transform="translate(254.124774, 206.758774)"><g><path d="M 53.953125 -136.984375 C 61.429688 -136.984375 67.195312 -136.191406 71.25 -134.609375 C 75.300781 -133.023438 78.785156 -131.347656 81.703125 -129.578125 C 83.222656 -128.691406 84.457031 -128.023438 85.40625 -127.578125 C 86.351562 -127.140625 87.269531 -126.921875 88.15625 -126.921875 C 89.425781 -126.921875 90.34375 -127.613281 90.90625 -129 C 91.476562 -130.394531 91.957031 -132.488281 92.34375 -135.28125 L 96.703125 -135.28125 C 96.578125 -132.875 96.421875 -129.988281 96.234375 -126.625 C 96.046875 -123.269531 95.921875 -118.867188 95.859375 -113.421875 C 95.796875 -107.984375 95.765625 -100.828125 95.765625 -91.953125 L 91.390625 -91.953125 C 90.878906 -98.546875 89.359375 -104.941406 86.828125 -111.140625 C 84.296875 -117.347656 80.71875 -122.445312 76.09375 -126.4375 C 71.46875 -130.4375 65.800781 -132.4375 59.09375 -132.4375 C 53.007812 -132.4375 48.003906 -130.722656 44.078125 -127.296875 C 40.148438 -123.878906 38.1875 -119.128906 38.1875 -113.046875 C 38.1875 -107.984375 39.453125 -103.644531 41.984375 -100.03125 C 44.523438 -96.425781 48.234375 -92.910156 53.109375 -89.484375 C 57.984375 -86.066406 63.90625 -81.953125 70.875 -77.140625 C 76.945312 -73.210938 82.390625 -69.285156 87.203125 -65.359375 C 92.023438 -61.429688 95.890625 -57 98.796875 -52.0625 C 101.710938 -47.125 103.171875 -41.234375 103.171875 -34.390625 C 103.171875 -26.023438 100.984375 -19.117188 96.609375 -13.671875 C 92.242188 -8.234375 86.515625 -4.148438 79.421875 -1.421875 C 72.328125 1.292969 64.535156 2.65625 56.046875 2.65625 C 48.191406 2.65625 41.921875 1.894531 37.234375 0.375 C 32.546875 -1.144531 28.617188 -2.726562 25.453125 -4.375 C 22.671875 -6.144531 20.519531 -7.03125 19 -7.03125 C 17.726562 -7.03125 16.804688 -6.332031 16.234375 -4.9375 C 15.671875 -3.539062 15.195312 -1.449219 14.8125 1.328125 L 10.453125 1.328125 C 10.703125 -1.710938 10.859375 -5.257812 10.921875 -9.3125 C 10.984375 -13.363281 11.046875 -18.648438 11.109375 -25.171875 C 11.171875 -31.691406 11.203125 -39.957031 11.203125 -49.96875 L 15.578125 -49.96875 C 16.085938 -41.613281 17.515625 -33.789062 19.859375 -26.5 C 22.203125 -19.21875 25.8125 -13.359375 30.6875 -8.921875 C 35.5625 -4.492188 42.050781 -2.28125 50.15625 -2.28125 C 54.59375 -2.28125 58.550781 -3.070312 62.03125 -4.65625 C 65.519531 -6.238281 68.335938 -8.613281 70.484375 -11.78125 C 72.640625 -14.945312 73.71875 -18.875 73.71875 -23.5625 C 73.71875 -28.882812 72.484375 -33.503906 70.015625 -37.421875 C 67.546875 -41.347656 64.1875 -45.019531 59.9375 -48.4375 C 55.695312 -51.863281 50.789062 -55.351562 45.21875 -58.90625 C 39.269531 -62.832031 33.695312 -66.753906 28.5 -70.671875 C 23.300781 -74.597656 19.148438 -79.09375 16.046875 -84.15625 C 12.953125 -89.226562 11.40625 -95.25 11.40625 -102.21875 C 11.40625 -110.195312 13.398438 -116.75 17.390625 -121.875 C 21.378906 -127.007812 26.632812 -130.8125 33.15625 -133.28125 C 39.675781 -135.75 46.609375 -136.984375 53.953125 -136.984375 Z M 53.953125 -136.984375 "/></g></g></g><g fill="#d4ac74" fill-opacity="1"><g transform="translate(361.451053, 206.758774)"><g><path d="M 69.921875 -134.90625 L 116.09375 -15.953125 C 117.863281 -11.398438 119.859375 -8.265625 122.078125 -6.546875 C 124.296875 -4.835938 126.289062 -3.921875 128.0625 -3.796875 L 128.0625 0 C 124.257812 -0.25 119.789062 -0.40625 114.65625 -0.46875 C 109.53125 -0.53125 104.375 -0.5625 99.1875 -0.5625 C 93.351562 -0.5625 87.835938 -0.53125 82.640625 -0.46875 C 77.453125 -0.40625 73.335938 -0.25 70.296875 0 L 70.296875 -3.796875 C 76.753906 -4.054688 80.835938 -5.164062 82.546875 -7.125 C 84.265625 -9.082031 83.851562 -13.296875 81.3125 -19.765625 L 49.015625 -108.109375 L 52.4375 -113.046875 L 23.5625 -37.8125 C 20.769531 -30.84375 19.085938 -25.140625 18.515625 -20.703125 C 17.953125 -16.273438 18.269531 -12.859375 19.46875 -10.453125 C 20.675781 -8.046875 22.640625 -6.363281 25.359375 -5.40625 C 28.085938 -4.457031 31.351562 -3.921875 35.15625 -3.796875 L 35.15625 0 C 30.96875 -0.25 26.972656 -0.40625 23.171875 -0.46875 C 19.378906 -0.53125 15.519531 -0.5625 11.59375 -0.5625 C 8.800781 -0.5625 6.171875 -0.53125 3.703125 -0.46875 C 1.234375 -0.40625 -0.945312 -0.25 -2.84375 0 L -2.84375 -3.796875 C -0.1875 -4.304688 2.53125 -6.015625 5.3125 -8.921875 C 8.101562 -11.835938 10.828125 -16.78125 13.484375 -23.75 L 56.8125 -134.90625 C 58.832031 -134.769531 61.015625 -134.703125 63.359375 -134.703125 C 65.703125 -134.703125 67.890625 -134.769531 69.921875 -134.90625 Z M 83.21875 -54.71875 L 83.21875 -50.921875 L 26.59375 -50.921875 L 28.5 -54.71875 Z M 83.21875 -54.71875 "/></g></g></g></g></g></g><g clip-path="url(#db891d530a)"><g transform="matrix(1, 0, 0, 1, 519, 21)"><g clip-path="url(#371f6dc6be)"><g fill="#d4ac74" fill-opacity="1"><g transform="translate(0.352037, 183.459213)"><g><path d="M 118.546875 -12.25 L 118.546875 0 L 8.625 0 L 8.625 -9.765625 L 97.484375 -121.796875 L 9.953125 -121.796875 L 9.953125 -134.0625 L 116.25 -134.0625 L 116.25 -124.296875 L 27.578125 -12.25 Z M 118.546875 -12.25 "/></g></g></g><g fill="#d4ac74" fill-opacity="1"><g transform="translate(126.160087, 183.459213)"><g><path d="M 105.90625 -35.8125 L 31.21875 -35.8125 L 15.125 0 L 0.390625 0 L 61.671875 -134.0625 L 75.65625 -134.0625 L 136.9375 0 L 122 0 Z M 100.734375 -47.296875 L 68.5625 -119.3125 L 36.390625 -47.296875 Z M 100.734375 -47.296875 "/></g></g></g><g fill="#d4ac74" fill-opacity="1"><g transform="translate(264.606363, 183.459213)"><g><path d="M 113.375 0 L 82.734375 -43.09375 C 79.285156 -42.707031 75.710938 -42.515625 72.015625 -42.515625 L 36 -42.515625 L 36 0 L 21.828125 0 L 21.828125 -134.0625 L 72.015625 -134.0625 C 89.117188 -134.0625 102.519531 -129.972656 112.21875 -121.796875 C 121.925781 -113.628906 126.78125 -102.394531 126.78125 -88.09375 C 126.78125 -77.625 124.128906 -68.78125 118.828125 -61.5625 C 113.535156 -54.351562 105.972656 -49.15625 96.140625 -45.96875 L 128.890625 0 Z M 71.625 -54.578125 C 84.90625 -54.578125 95.054688 -57.515625 102.078125 -63.390625 C 109.097656 -69.265625 112.609375 -77.5 112.609375 -88.09375 C 112.609375 -98.945312 109.097656 -107.273438 102.078125 -113.078125 C 95.054688 -118.890625 84.90625 -121.796875 71.625 -121.796875 L 36 -121.796875 L 36 -54.578125 Z M 71.625 -54.578125 "/></g></g></g><g fill="#d4ac74" fill-opacity="1"><g transform="translate(404.201549, 183.459213)"><g><path d="M 75.84375 1.15625 C 58.476562 1.15625 44.941406 -3.820312 35.234375 -13.78125 C 25.535156 -23.75 20.6875 -38.242188 20.6875 -57.265625 L 20.6875 -134.0625 L 34.859375 -134.0625 L 34.859375 -57.84375 C 34.859375 -42.257812 38.367188 -30.632812 45.390625 -22.96875 C 52.410156 -15.3125 62.5625 -11.484375 75.84375 -11.484375 C 89.25 -11.484375 99.460938 -15.3125 106.484375 -22.96875 C 113.503906 -30.632812 117.015625 -42.257812 117.015625 -57.84375 L 117.015625 -134.0625 L 130.8125 -134.0625 L 130.8125 -57.265625 C 130.8125 -38.242188 125.988281 -23.75 116.34375 -13.78125 C 106.707031 -3.820312 93.207031 1.15625 75.84375 1.15625 Z M 75.84375 1.15625 "/></g></g></g></g></g></g></g></g></svg>